%TF.GenerationSoftware,KiCad,Pcbnew,9.0.3*%
%TF.CreationDate,2025-11-16T16:34:23+05:30*%
%TF.ProjectId,CTD_Project,4354445f-5072-46f6-9a65-63742e6b6963,rev?*%
%TF.SameCoordinates,Original*%
%TF.FileFunction,Copper,L1,Top*%
%TF.FilePolarity,Positive*%
%FSLAX46Y46*%
G04 Gerber Fmt 4.6, Leading zero omitted, Abs format (unit mm)*
G04 Created by KiCad (PCBNEW 9.0.3) date 2025-11-16 16:34:23*
%MOMM*%
%LPD*%
G01*
G04 APERTURE LIST*
G04 Aperture macros list*
%AMRoundRect*
0 Rectangle with rounded corners*
0 $1 Rounding radius*
0 $2 $3 $4 $5 $6 $7 $8 $9 X,Y pos of 4 corners*
0 Add a 4 corners polygon primitive as box body*
4,1,4,$2,$3,$4,$5,$6,$7,$8,$9,$2,$3,0*
0 Add four circle primitives for the rounded corners*
1,1,$1+$1,$2,$3*
1,1,$1+$1,$4,$5*
1,1,$1+$1,$6,$7*
1,1,$1+$1,$8,$9*
0 Add four rect primitives between the rounded corners*
20,1,$1+$1,$2,$3,$4,$5,0*
20,1,$1+$1,$4,$5,$6,$7,0*
20,1,$1+$1,$6,$7,$8,$9,0*
20,1,$1+$1,$8,$9,$2,$3,0*%
G04 Aperture macros list end*
%TA.AperFunction,ComponentPad*%
%ADD10C,1.600000*%
%TD*%
%TA.AperFunction,ComponentPad*%
%ADD11RoundRect,0.250000X-0.825000X0.825000X-0.825000X-0.825000X0.825000X-0.825000X0.825000X0.825000X0*%
%TD*%
%TA.AperFunction,ComponentPad*%
%ADD12C,2.150000*%
%TD*%
%TA.AperFunction,ComponentPad*%
%ADD13R,2.000000X2.000000*%
%TD*%
%TA.AperFunction,ComponentPad*%
%ADD14C,2.100000*%
%TD*%
%TA.AperFunction,ComponentPad*%
%ADD15C,2.000000*%
%TD*%
%TA.AperFunction,ComponentPad*%
%ADD16RoundRect,0.250001X-1.099999X1.099999X-1.099999X-1.099999X1.099999X-1.099999X1.099999X1.099999X0*%
%TD*%
%TA.AperFunction,ComponentPad*%
%ADD17C,2.700000*%
%TD*%
%TA.AperFunction,ComponentPad*%
%ADD18C,1.500000*%
%TD*%
%TA.AperFunction,Conductor*%
%ADD19C,0.300000*%
%TD*%
G04 APERTURE END LIST*
D10*
%TO.P,C2,2*%
%TO.N,/Vout*%
X182500000Y-49000000D03*
%TO.P,C2,1*%
%TO.N,Net-(C2-Pad1)*%
X177500000Y-49000000D03*
%TD*%
%TO.P,C3,2*%
%TO.N,Net-(IC2-INVERTING_INPUT)*%
X173000000Y-47500000D03*
%TO.P,C3,1*%
%TO.N,0*%
X168000000Y-47500000D03*
%TD*%
%TO.P,R7,1*%
%TO.N,Net-(IC2-NON-INVERTING_INPUT)*%
X177860000Y-53000000D03*
%TO.P,R7,2*%
%TO.N,/Vout*%
X182940000Y-53000000D03*
%TD*%
%TO.P,R8,1*%
%TO.N,Net-(IC2-NON-INVERTING_INPUT)*%
X177860000Y-58150000D03*
%TO.P,R8,2*%
%TO.N,/Vout*%
X182940000Y-58150000D03*
%TD*%
%TO.P,R3,1*%
%TO.N,/gain1*%
X183658182Y-41500000D03*
%TO.P,R3,2*%
%TO.N,Net-(C2-Pad1)*%
X178578182Y-41500000D03*
%TD*%
%TO.P,R1,1*%
%TO.N,/Vin*%
X162500000Y-50620000D03*
%TO.P,R1,2*%
%TO.N,Net-(IC1-INVERTING_INPUT)*%
X162500000Y-45540000D03*
%TD*%
%TO.P,R6,1*%
%TO.N,0*%
X168420000Y-58000000D03*
%TO.P,R6,2*%
%TO.N,Net-(IC2-NON-INVERTING_INPUT)*%
X173500000Y-58000000D03*
%TD*%
%TO.P,R5,1*%
%TO.N,0*%
X168420000Y-52850000D03*
%TO.P,R5,2*%
%TO.N,Net-(IC2-NON-INVERTING_INPUT)*%
X173500000Y-52850000D03*
%TD*%
D11*
%TO.P,V1,1*%
%TO.N,/Vin*%
X163000000Y-55400000D03*
D12*
%TO.P,V1,2*%
%TO.N,0*%
X163000000Y-60000000D03*
%TD*%
D13*
%TO.P,VR1,1,CCW*%
%TO.N,/gain1*%
X202000000Y-57000000D03*
D14*
%TO.P,VR1,2,S*%
%TO.N,Net-(IC1-INVERTING_INPUT)*%
X197000000Y-57000000D03*
D15*
%TO.P,VR1,3,CW*%
%TO.N,unconnected-(VR1-CW-Pad3)*%
X191920000Y-57000000D03*
%TD*%
D16*
%TO.P,J1,1,Pin_1*%
%TO.N,VCC*%
X167310000Y-66190000D03*
D17*
%TO.P,J1,2,Pin_2*%
%TO.N,0*%
X167310000Y-70150000D03*
%TO.P,J1,3,Pin_3*%
%TO.N,VEE*%
X167310000Y-74110000D03*
%TD*%
D18*
%TO.P,IC2,1,OFFSET_NULL_1*%
%TO.N,unconnected-(IC2-OFFSET_NULL_1-Pad1)*%
X176190000Y-67190000D03*
%TO.P,IC2,2,INVERTING_INPUT*%
%TO.N,Net-(IC2-INVERTING_INPUT)*%
X176190000Y-69730000D03*
%TO.P,IC2,3,NON-INVERTING_INPUT*%
%TO.N,Net-(IC2-NON-INVERTING_INPUT)*%
X176190000Y-72270000D03*
%TO.P,IC2,4,VCC-*%
%TO.N,VEE*%
X176190000Y-74810000D03*
%TO.P,IC2,5,OFFSET_NULL_2*%
%TO.N,unconnected-(IC2-OFFSET_NULL_2-Pad5)*%
X183810000Y-74810000D03*
%TO.P,IC2,6,OUTPUT*%
%TO.N,/Vout*%
X183810000Y-72270000D03*
%TO.P,IC2,7,VCC+*%
%TO.N,VCC*%
X183810000Y-69730000D03*
%TO.P,IC2,8,N.C.*%
%TO.N,unconnected-(IC2-N.C.-Pad8)*%
X183810000Y-67190000D03*
%TD*%
D10*
%TO.P,C1,1*%
%TO.N,Net-(IC1-INVERTING_INPUT)*%
X197000000Y-65000000D03*
%TO.P,C1,2*%
%TO.N,/gain1*%
X202000000Y-65000000D03*
%TD*%
%TO.P,R4,2*%
%TO.N,Net-(IC2-INVERTING_INPUT)*%
X170098182Y-41500000D03*
%TO.P,R4,1*%
%TO.N,Net-(C2-Pad1)*%
X175178182Y-41500000D03*
%TD*%
D18*
%TO.P,IC1,1,OFFSET_NULL_1*%
%TO.N,unconnected-(IC1-OFFSET_NULL_1-Pad1)*%
X195190000Y-68190000D03*
%TO.P,IC1,2,INVERTING_INPUT*%
%TO.N,Net-(IC1-INVERTING_INPUT)*%
X195190000Y-70730000D03*
%TO.P,IC1,3,NON-INVERTING_INPUT*%
%TO.N,0*%
X195190000Y-73270000D03*
%TO.P,IC1,4,VCC-*%
%TO.N,VEE*%
X195190000Y-75810000D03*
%TO.P,IC1,5,OFFSET_NULL_2*%
%TO.N,unconnected-(IC1-OFFSET_NULL_2-Pad5)*%
X202810000Y-75810000D03*
%TO.P,IC1,6,OUTPUT*%
%TO.N,/gain1*%
X202810000Y-73270000D03*
%TO.P,IC1,7,VCC+*%
%TO.N,VCC*%
X202810000Y-70730000D03*
%TO.P,IC1,8,N.C.*%
%TO.N,unconnected-(IC1-N.C.-Pad8)*%
X202810000Y-68190000D03*
%TD*%
D19*
%TO.N,Net-(IC1-INVERTING_INPUT)*%
X180249000Y-40249000D02*
X197000000Y-57000000D01*
X167791000Y-40249000D02*
X180249000Y-40249000D01*
X162500000Y-45540000D02*
X167791000Y-40249000D01*
%TO.N,Net-(IC2-INVERTING_INPUT)*%
X179111000Y-66809000D02*
X176190000Y-69730000D01*
X179111000Y-52481818D02*
X179111000Y-66809000D01*
X174129182Y-47500000D02*
X179111000Y-52481818D01*
X173000000Y-47500000D02*
X174129182Y-47500000D01*
%TO.N,0*%
X168000000Y-52430000D02*
X168420000Y-52850000D01*
X168000000Y-47500000D02*
X168000000Y-52430000D01*
%TO.N,Net-(IC2-INVERTING_INPUT)*%
X170098182Y-44598182D02*
X173000000Y-47500000D01*
X170098182Y-41500000D02*
X170098182Y-44598182D01*
%TO.N,Net-(C2-Pad1)*%
X175178182Y-41500000D02*
X178578182Y-41500000D01*
X178578182Y-41500000D02*
X178578182Y-47921818D01*
X178578182Y-47921818D02*
X177500000Y-49000000D01*
%TO.N,/Vout*%
X182500000Y-52560000D02*
X182940000Y-53000000D01*
X182500000Y-49000000D02*
X182500000Y-52560000D01*
%TO.N,/gain1*%
X199158182Y-57000000D02*
X183658182Y-41500000D01*
X202000000Y-57000000D02*
X199158182Y-57000000D01*
%TO.N,Net-(IC1-INVERTING_INPUT)*%
X197000000Y-65000000D02*
X197000000Y-57000000D01*
%TO.N,/gain1*%
X202000000Y-65000000D02*
X202000000Y-57000000D01*
%TO.N,Net-(IC1-INVERTING_INPUT)*%
X197000000Y-68920000D02*
X195190000Y-70730000D01*
X197000000Y-65000000D02*
X197000000Y-68920000D01*
%TO.N,/gain1*%
X204011000Y-67011000D02*
X204011000Y-72069000D01*
X204011000Y-72069000D02*
X202810000Y-73270000D01*
X202000000Y-65000000D02*
X204011000Y-67011000D01*
%TO.N,VCC*%
X190790529Y-71931000D02*
X189250529Y-73471000D01*
X201609000Y-71931000D02*
X190790529Y-71931000D01*
X202810000Y-70730000D02*
X201609000Y-71931000D01*
X183312529Y-73471000D02*
X189250529Y-73471000D01*
%TO.N,0*%
X196391000Y-74471000D02*
X195190000Y-73270000D01*
X196391000Y-76307471D02*
X196391000Y-74471000D01*
X195597471Y-77101000D02*
X196391000Y-76307471D01*
X167754001Y-77101000D02*
X195597471Y-77101000D01*
X165509000Y-71951000D02*
X165509000Y-74855999D01*
X167310000Y-70150000D02*
X165509000Y-71951000D01*
X165509000Y-74855999D02*
X167754001Y-77101000D01*
%TO.N,VEE*%
X177880000Y-76500000D02*
X194500000Y-76500000D01*
X176190000Y-74810000D02*
X177880000Y-76500000D01*
X194500000Y-76500000D02*
X195190000Y-75810000D01*
%TO.N,VCC*%
X182609000Y-72767471D02*
X183312529Y-73471000D01*
X182609000Y-70931000D02*
X182609000Y-72767471D01*
X183810000Y-69730000D02*
X182609000Y-70931000D01*
%TO.N,Net-(IC2-NON-INVERTING_INPUT)*%
X174989000Y-71069000D02*
X176190000Y-72270000D01*
X174989000Y-61021000D02*
X174989000Y-71069000D01*
X177860000Y-58150000D02*
X174989000Y-61021000D01*
%TO.N,/Vin*%
X163000000Y-51120000D02*
X162500000Y-50620000D01*
X163000000Y-55400000D02*
X163000000Y-51120000D01*
%TO.N,0*%
X163000000Y-65840000D02*
X167310000Y-70150000D01*
X163000000Y-60000000D02*
X163000000Y-65840000D01*
%TO.N,VCC*%
X180031000Y-73509000D02*
X183810000Y-69730000D01*
X167310000Y-66190000D02*
X174629000Y-73509000D01*
X174629000Y-73509000D02*
X180031000Y-73509000D01*
%TO.N,0*%
X165000000Y-58000000D02*
X163000000Y-60000000D01*
X168420000Y-58000000D02*
X165000000Y-58000000D01*
X168420000Y-52850000D02*
X168420000Y-58000000D01*
%TO.N,/Vout*%
X185011000Y-60221000D02*
X185011000Y-71069000D01*
X185011000Y-71069000D02*
X183810000Y-72270000D01*
X182940000Y-58150000D02*
X185011000Y-60221000D01*
X182940000Y-52940000D02*
X182500000Y-52500000D01*
X182940000Y-53000000D02*
X182940000Y-52940000D01*
X182940000Y-58150000D02*
X182940000Y-53000000D01*
%TO.N,Net-(IC2-NON-INVERTING_INPUT)*%
X177710000Y-58000000D02*
X177860000Y-58150000D01*
X173500000Y-58000000D02*
X177710000Y-58000000D01*
X177860000Y-53000000D02*
X177860000Y-58150000D01*
X173500000Y-52850000D02*
X177710000Y-52850000D01*
X177710000Y-52850000D02*
X177860000Y-53000000D01*
%TO.N,VEE*%
X167310000Y-74110000D02*
X175490000Y-74110000D01*
X175490000Y-74110000D02*
X176190000Y-74810000D01*
%TO.N,*%
X193000000Y-67000000D02*
X190000000Y-70000000D01*
X193000000Y-65500000D02*
X193000000Y-67000000D01*
X192500000Y-65000000D02*
X193000000Y-65500000D01*
X191000000Y-65000000D02*
X192500000Y-65000000D01*
X188500000Y-65000000D02*
X189500000Y-66000000D01*
X189500000Y-66000000D02*
X190000000Y-66000000D01*
X190000000Y-66000000D02*
X191000000Y-65000000D01*
X186500000Y-65500000D02*
X187000000Y-65000000D01*
X187000000Y-65000000D02*
X188500000Y-65000000D01*
X186500000Y-67000000D02*
X186500000Y-65500000D01*
X189500000Y-70000000D02*
X186500000Y-67000000D01*
%TD*%
M02*
