M48
; DRILL file {KiCad 9.0.3} date 2025-11-16T16:34:19+0530
; FORMAT={-:-/ absolute / metric / decimal}
; #@! TF.CreationDate,2025-11-16T16:34:19+05:30
; #@! TF.GenerationSoftware,Kicad,Pcbnew,9.0.3
; #@! TF.FileFunction,Plated,1,2,PTH
FMAT,2
METRIC
; #@! TA.AperFunction,Plated,PTH,ComponentDrill
T1C0.760
; #@! TA.AperFunction,Plated,PTH,ComponentDrill
T2C0.800
; #@! TA.AperFunction,Plated,PTH,ComponentDrill
T3C1.150
; #@! TA.AperFunction,Plated,PTH,ComponentDrill
T4C1.400
; #@! TA.AperFunction,Plated,PTH,ComponentDrill
T5C1.700
%
G90
G05
T1
X176.19Y-67.19
X176.19Y-69.73
X176.19Y-72.27
X176.19Y-74.81
X183.81Y-67.19
X183.81Y-69.73
X183.81Y-72.27
X183.81Y-74.81
X195.19Y-68.19
X195.19Y-70.73
X195.19Y-73.27
X195.19Y-75.81
X202.81Y-68.19
X202.81Y-70.73
X202.81Y-73.27
X202.81Y-75.81
T2
X162.5Y-45.54
X162.5Y-50.62
X168.0Y-47.5
X168.42Y-52.85
X168.42Y-58.0
X170.098Y-41.5
X173.0Y-47.5
X173.5Y-52.85
X173.5Y-58.0
X175.178Y-41.5
X177.5Y-49.0
X177.86Y-53.0
X177.86Y-58.15
X178.578Y-41.5
X182.5Y-49.0
X182.94Y-53.0
X182.94Y-58.15
X183.658Y-41.5
X197.0Y-65.0
X202.0Y-65.0
T3
X163.0Y-55.4
X163.0Y-60.0
T4
X191.92Y-57.0
X197.0Y-57.0
X202.0Y-57.0
T5
X167.31Y-66.19
X167.31Y-70.15
X167.31Y-74.11
M30
